# xmcd
#
# Track frame offsets:
# 150
# 25630
# 47205
# 67690
# 86957
# 110857
# 124640
# 142007
# 153132
# 170750
# 185682
# 199525
#
# Disc length: 2878 seconds
#
# Revision: 1
# Processed by: cddbd v1.5.1PL0 Copyright (c) Steve Scherf et al.
# Submitted via: Easy CD Ripper v2.27
#
DISCID=a50b3c0c
DTITLE=John Denver - Live at the Sydney Opera House
DYEAR=1980
DGENRE=Country
TTITLE0=Rocky Mountain High
TTITLE1=Back Home Again
TTITLE2=Fly Away
TTITLE3=Looking For Space
TTITLE4=I Want To Live
TTITLE5=Its A Sin To Tell A Lie
TTITLE6=Moreton Bay
TTITLE7=Grandmas Feather Bed
TTITLE8=Thank God I'm A Country Boy
TTITLE9=Take Me Home, Country Roads
TTITLE10=The Eagle and the Hawk
TTITLE11=Annies Song
EXTD=
EXTT0=
EXTT1=
EXTT2=
EXTT3=
EXTT4=
EXTT5=
EXTT6=
EXTT7=
EXTT8=
EXTT9=
EXTT10=
EXTT11=
PLAYORDER=
